<svg xmlns="http://www.w3.org/2000/svg" xmlns:xlink="http://www.w3.org/1999/xlink" width="136.4599609375" height="136.4599609375" viewBox="0 0 136.4599609375 136.4599609375" fill="none">
<path d="M116.565 15.05L90.9791 15.05C89.8472 15.05 88.7627 15.4996 87.9633 16.2992C87.1638 17.0989 86.7147 18.1832 86.7147 19.314C86.7147 20.4458 87.1638 21.5301 87.9633 22.3298C88.7627 23.1295 89.8472 23.579 90.9791 23.579L105.974 23.579L92.0804 37.4732C83.7346 30.6896 73.304 26.9947 62.5494 27.0105C36.6421 27.0105 15.6399 48.0132 15.6399 73.9208C15.6399 99.8274 36.6421 120.83 62.5494 120.83C88.4556 120.83 109.458 99.8274 109.458 73.9208C109.475 62.7335 105.477 51.9111 98.193 43.4223L112.301 29.3134L112.301 44.9011C112.301 46.033 112.75 47.1172 113.55 47.9169C114.35 48.7166 115.435 49.1662 116.565 49.1662C117.696 49.1662 118.781 48.7166 119.581 47.9169C120.381 47.1172 120.83 46.033 120.83 44.9011L120.83 19.314C120.83 18.1832 120.381 17.0989 119.581 16.2992C118.781 15.4996 117.696 15.05 116.565 15.05ZM100.929 73.9208C100.929 52.7225 83.7462 35.5396 62.5494 35.5396C41.3515 35.5396 24.1687 52.7225 24.1687 73.9208C24.1687 95.118 41.3515 112.301 62.5494 112.301C83.7462 112.301 100.929 95.118 100.929 73.9208Z" fill-rule="evenodd"  fill="#699AFF" >
</path>
</svg>
