<svg xmlns="http://www.w3.org/2000/svg" xmlns:xlink="http://www.w3.org/1999/xlink" width="205.887451171875" height="205.8876953125" viewBox="0 0 205.887451171875 205.8876953125" fill="none">
<path d="M136.489 119.489L131.152 115.815C141.997 95.3487 136.021 69.5536 116.48 56.0984C95.4355 41.608 66.6319 46.9203 52.1422 67.9636C37.6525 89.0069 42.965 117.81 64.0094 132.301C83.9845 146.055 110.95 141.968 126.03 123.521L131.241 127.11L122.934 139.175C122.238 140.185 121.972 141.431 122.195 142.638C122.417 143.844 123.11 144.913 124.12 145.608C125.131 146.304 126.376 146.57 127.582 146.348C128.79 146.125 129.858 145.432 130.554 144.421L138.861 132.356L148.07 138.697C149.08 139.393 150.326 139.659 151.533 139.436C152.739 139.214 153.808 138.521 154.504 137.511C155.199 136.5 155.465 135.254 155.243 134.048C155.021 132.841 154.327 131.773 153.317 131.077L144.108 124.736L151.542 113.941C152.238 112.93 152.505 111.685 152.281 110.478C152.058 109.272 151.367 108.203 150.355 107.507C149.345 106.812 148.1 106.546 146.893 106.768C145.687 106.991 144.618 107.683 143.922 108.694L136.489 119.489ZM69.2564 124.681C86.0913 136.272 109.135 132.023 120.727 115.189C132.319 98.3542 128.068 75.3106 111.233 63.7186C94.3979 52.1267 71.3548 56.3764 59.7631 73.2111C48.1713 90.0457 52.4216 113.089 69.2564 124.681Z" fill-rule="evenodd"  fill="#FF72CD" >
</path>
</svg>
