<svg xmlns="http://www.w3.org/2000/svg" xmlns:xlink="http://www.w3.org/1999/xlink" width="244.1499609374996" height="248.30987304687505" viewBox="0 0 244.1499609374996 248.30987304687505" fill="none">
<g filter="url(#filter_dhfZLrcVD0)">
<path d="M112.783 144.05C135.498 144.392 178.502 128.628 168.796 62.847C158.3 42.8016 121.405 11.8334 57.8033 48.3243C51.6943 78.1198 54.137 138.978 112.783 144.05Z"   fill="#EE93F0" >
</path>
</g>
<g filter="url(#filter_fKnFtpYvU-)">
<path   fill-rule="evenodd"  fill="#09043A"  d="M195.308 118.385C198.354 118.385 196.575 117.355 189.842 115.222C186.429 114.14 182.251 112.198 180.561 110.91C175.283 106.886 174.755 104.936 175.029 90.5195C175.283 77.2011 176.09 74.7786 178.228 80.9272C180.786 88.2905 181.782 89.8642 184.479 90.8036C188.237 92.1142 188.677 90.6834 185.048 88.9528C182.576 87.7746 181.824 86.6993 180.654 82.6752C179.876 80.0035 178.298 76.6974 177.146 75.3258C175.574 73.4558 174.895 71.2511 174.415 66.4706C173.568 58.0128 169.679 47.0698 165.495 41.3743C163.237 38.3 159.687 35.1961 154.879 32.0956C149.274 28.4811 147.541 26.8742 147.148 24.9293C146.274 20.6054 140.766 15.2166 133.596 11.6753C127.389 8.60794 126.354 8.37963 117.495 8.11647C111.205 7.92999 106.546 8.25589 103.606 9.08895C91.9367 12.3933 81.6235 18.8103 72.4261 28.4898C57.9132 43.762 51.051 62.7916 52.1269 84.7753C52.4013 90.3697 53.19 96.9365 53.8824 99.3695C54.5748 101.801 55.667 105.647 56.3103 107.916C58.1803 114.516 56.7192 117.692 46.9585 128.227C36.549 139.463 34.5754 143.196 34.6317 151.552C34.6663 156.657 35.1933 158.869 37.6394 164.158L40.607 170.575L43.3493 168.75C47.858 165.753 53.3408 163.592 61.4424 161.615C65.653 160.589 69.4966 159.435 69.9818 159.05C70.4689 158.667 72.8514 158.057 75.2757 157.696C77.7017 157.335 80.9729 156.5 82.5485 155.843C86.4139 154.229 86.3521 154.193 86.3521 158.05C86.3521 160.491 87.3062 162.921 89.7377 166.673C93.7594 172.876 94.0338 173.114 101.288 176.786C106.688 179.519 107.271 179.624 114.56 179.172C123.062 178.644 128.304 176.527 133.175 171.659C136.526 168.311 139.337 162.288 139.654 157.786C139.922 153.928 139.583 153.931 154.481 157.691C159.591 158.978 167.131 160.81 171.236 161.762C186.111 165.204 193.636 169.099 201.952 177.656L206.51 182.346L208.898 179.774C216.033 172.091 218.339 158.4 214.559 146.169C211.928 137.65 205.231 131.122 192.528 124.687C187.418 122.099 181.944 119.006 180.361 117.812C177.584 115.715 174.271 110.691 175.111 109.851C175.338 109.624 177.259 110.656 179.38 112.142C183.476 115.015 192.077 118.385 195.308 118.385ZM90.5537 80.4235C88.7764 81.4587 88.4765 85.6606 90.0685 87.2518C92.4655 89.6499 96.8688 87.4435 96.9415 83.8063C96.9706 82.3162 94.2973 79.4493 92.918 79.4946C92.4691 79.5103 91.406 79.9268 90.5537 80.4235ZM64.1011 78.0603C52.2214 79.9582 56.8591 102.751 69.5366 104.777C72.8132 105.3 73.3239 105.781 75.9353 110.76C77.6072 113.955 81.5944 119.028 85.6579 123.136L92.5454 130.097L92.5454 143.734C92.5454 159.266 93.2342 161.598 99.4966 167.253C109.572 176.352 126.069 172.719 131.657 160.171C133.155 156.81 133.275 155.003 132.773 143.365L132.212 130.325L139.143 123.171C144.167 117.987 146.69 114.632 150.142 108.02C151.693 105.048 153.978 102.682 157.327 102.533C159.7 102.426 165.21 97.0951 166.988 93.186C168.943 88.8848 169.086 83.7854 167.349 80.4287C166.361 78.5134 165.212 77.8023 162.384 77.3509C154.303 76.0595 148.5 69.761 142.545 55.8291C140.72 51.561 139.141 47.9691 139.036 47.8453C138.928 47.7216 137.54 48.2706 135.946 49.0636C133.729 50.1702 131.879 50.3602 128.061 49.8774C125.317 49.5306 122.404 49.1943 121.588 49.1315C120.772 49.0688 120.267 48.7551 120.465 48.4361C121.597 46.601 106.929 46.2559 102.711 48.0161C99.6238 49.3058 96.0946 53.9016 96.0874 56.6412C96.0837 58.2568 94.5263 59.6319 93.6722 58.7779C93.3832 58.4886 93.6177 56.6813 94.1919 54.7625C95.1478 51.5767 98.1082 48.0423 102.721 44.588C104.349 43.3681 103.994 43.2635 98.2954 43.2775C91.5677 43.2949 85.1527 45.6163 84.284 48.3473C84.0241 49.1681 83.0428 51.2316 82.1014 52.9343C81.1619 54.637 78.9102 59.0149 77.0948 62.6644C71.9591 72.9922 68.2391 77.398 64.1011 78.0603ZM133.026 87.7764C135.964 85.9377 135.15 79.4684 131.979 79.4684C131.403 79.4684 130.224 79.9861 129.357 80.6169C125.902 83.144 129.428 90.0298 133.026 87.7764ZM96.2546 69.5798C94.3573 68.8182 85.8596 68.874 82.3704 69.6687C80.862 70.0137 83.6098 70.2543 88.7346 70.2281C93.6958 70.2037 97.0796 69.9109 96.2546 69.5798ZM116.668 93.0083C117.573 94.3328 117.495 94.8068 116.214 95.7601C114.075 97.3496 114.266 98.3186 116.485 97.1317C119.365 95.5893 119.431 93.9476 116.745 90.4307C115.102 88.2748 114.057 85.6136 113.695 82.6473C113.394 80.169 113.045 79.1373 112.923 80.3538C112.423 85.3103 113.205 87.9472 116.668 93.0083ZM135.148 70.2246C139.844 70.2002 143.228 69.8883 142.668 69.531C141.411 68.7276 131.826 68.8095 128.822 69.6495C127.605 69.9911 130.453 70.249 135.148 70.2246Z">
</path>
</g>
<g filter="url(#filter_r1eLV8yWmP)">
<path    stroke="rgba(72, 158, 185, 1)" stroke-width="1.638339638710022"  stroke-linecap="round"  d="M65.7599 106.776C64.13 105.715 65.3667 103.291 65.76 102.266">
</path>
</g>
<g filter="url(#filter_M2vQAvU-t_)">
<path    stroke="rgba(72, 158, 185, 1)" stroke-width="1.638339638710022"  stroke-linecap="round"  d="M158.563 106.351C160.108 105.168 158.689 102.846 158.219 101.854">
</path>
</g>
<g filter="url(#filter_RQIECQPcwN)">
<circle cx="90.3350585937498" cy="99.40095458984382" r="6.555"   fill="#EC5F9B" >
</circle>
</g>
<g filter="url(#filter_5_AbywSYzP)">
<circle cx="137.8450683593748" cy="98.18092285156257" r="6.555"   fill="#EC5F9B" >
</circle>
</g>
<g filter="url(#filter_N9EnNDBwLE)">
<path d="M229.18 225.556L223.446 207.535C216.4 168.215 191.704 154.562 180.235 152.651L149.312 145.074C118.513 135.572 75.8613 146.166 58.3861 152.651C39.2164 159.532 29.7826 174.222 27.4627 180.707L14.97 225.556L229.18 225.556Z"   fill="#FFFFFF" >
</path>
</g>
<g filter="url(#filter_eqhCXx1Lw0)">
<path d="M92.7901 144.463C93.1996 150.334 97.7051 162.158 112.451 162.486C119.824 162.486 128.63 160.847 133.34 147.535L133.34 120.706C126.513 125.689 108.846 132.666 92.7901 120.706L92.7901 144.463Z"   fill="#EE93F0" >
</path>
</g>
<g filter="url(#filter_ahEio0xbeg)">
<path d="M92.7901 130.33C101.146 143.108 123.305 145.483 133.34 145.073L133.34 129.306C120.725 139.954 101.05 134.425 92.7901 130.33Z"   fill="#C44964" >
</path>
</g>
<g filter="url(#filter_FAyS-SZxRH)">
<path d="M114.087 126.019C124.409 124.545 126.034 116.943 125.556 113.326L99.75 113.326C99.75 124.627 109.308 126.497 114.087 126.019Z"   fill="#09043A" >
</path>
</g>
<g filter="url(#filter_t2bXr-zP6A)">
<path d="M120.419 123.757C118.783 124.819 116.66 125.639 113.927 126.029C110.698 126.352 105.288 125.603 102.118 121.598C104.32 119.761 107.153 118.656 110.245 118.656C114.409 118.656 118.104 120.66 120.419 123.757Z" fill-rule="evenodd"  fill="#EC5F9B" >
</path>
</g>
<g filter="url(#filter_1xqZ9bFPMd)">
<path  fill-rule="evenodd"  stroke="rgba(153, 152, 159, 0.38)" stroke-width="1.2287548780441284"  stroke-linecap="round"  d="M73.1269 225.556C77.0581 209.665 72.3076 188.901 69.44 180.506M192.317 225.556C194.118 207.372 190.746 188.901 188.835 181.939">
</path>
</g>
<g filter="url(#filter_TXsJPsdV7u)">
<path     fill="#CC7DCE"  d="M154.909 98.3002C154.765 98.6865 154.909 99.1469 155.318 99.1977C156.698 99.3692 159.196 98.3911 162.242 93.9381C163.704 91.8005 164.669 89.2859 164.501 86.7015C164.278 83.2939 162.73 80.1374 157.874 81.882C157.405 82.0503 157.104 82.5162 157.104 83.0141C157.099 86.6614 156.66 93.5792 154.909 98.3002Z">
</path>
</g>
<path     fill="#CC7DCE"  d="M66.676 81.882C61.8202 80.1374 60.2716 83.2939 60.0493 86.7015C59.8807 89.2859 60.8463 91.8005 62.3084 93.9381C65.3541 98.3911 67.8521 99.3692 69.232 99.1977C69.6409 99.1469 69.7845 98.6865 69.6412 98.3002C67.8897 93.5792 67.4507 86.6614 67.4461 83.0141C67.4455 82.5162 67.1446 82.0503 66.676 81.882Z">
</path>
<g filter="url(#filter_Dq4eLoy3xp)">
<path    stroke="rgba(9, 4, 58, 1)" stroke-width="2.8670945167541504" stroke-linejoin="round" stroke-linecap="round"  d="M101.39 193.402L113.881 207.941L127.602 191.355L141.936 212.036L166.51 185.826">
</path>
</g>
<g filter="url(#filter_yWpJd53gyf)">
<path d="M70.7949 109.86C70.9615 109.446 71.027 108.999 70.986 108.556C70.9352 107.991 70.7147 107.455 70.3525 107.015C69.9903 106.575 69.503 106.252 68.9529 106.087C68.4029 105.923 67.815 105.924 67.2646 106.09C66.7141 106.256 66.2261 106.581 65.8629 107.021C65.427 106.653 64.8888 106.421 64.3176 106.355C63.7463 106.29 63.1677 106.394 62.6559 106.654C62.144 106.914 61.7222 107.319 61.4443 107.816C61.1664 108.314 61.0452 108.881 61.096 109.446C61.1325 109.856 61.259 110.253 61.4669 110.61C61.6748 110.967 61.959 111.275 62.2999 111.513L65.7218 113.976C65.912 114.113 66.1456 114.178 66.3808 114.161C66.6159 114.143 66.8373 114.044 67.0053 113.88L70.0267 110.94C70.365 110.644 70.6281 110.274 70.7949 109.86Z"   fill="#489EB9" >
</path>
</g>
<g filter="url(#filter_KqckXlSVjz)">
<path d="M154 106.925C153.672 107.391 153.493 107.943 153.486 108.51C153.479 108.955 153.578 109.396 153.776 109.796C153.974 110.196 154.265 110.545 154.625 110.814L157.862 113.515C158.042 113.665 158.27 113.748 158.506 113.747C158.742 113.747 158.97 113.663 159.149 113.512L162.373 110.795C162.694 110.532 162.954 110.204 163.134 109.832C163.314 109.46 163.41 109.054 163.415 108.642C163.423 108.075 163.258 107.519 162.943 107.044C162.628 106.569 162.177 106.198 161.646 105.978C161.116 105.757 160.531 105.698 159.967 105.807C159.402 105.915 158.883 106.188 158.477 106.589C158.081 106.177 157.57 105.891 157.008 105.767C156.447 105.643 155.86 105.687 155.325 105.894C154.789 106.1 154.327 106.459 154 106.925Z"   fill="#489EB9" >
</path>
</g>
<defs>
<filter id="filter_dhfZLrcVD0" x="36.724365234375" y="3.9034423828125" width="138.25737304687482" height="140.48810546875006" filterUnits="userSpaceOnUse" color-interpolation-filters="sRGB">
<feFlood flood-opacity="0" result="feFloodId_dhfZLrcVD0"/>
<feColorMatrix in="SourceAlpha" type="matrix" values="0 0 0 0 0 0 0 0 0 0 0 0 0 0 0 0 0 0 127 0" result="hardAlpha_dhfZLrcVD0"/>
<feOffset dx="3.52" dy="0"/>
<feComposite in2="hardAlpha_dhfZLrcVD0" operator="out"/>
<feColorMatrix type="matrix" values="0 0 0 0 0.2196078431372549 0 0 0 0 0.20392156862745098 0 0 0 0 0.9607843137254902 0 0 0 1 0"/>
<feBlend mode="normal" in2="feFloodId_dhfZLrcVD0" result="dropShadow_1_dhfZLrcVD0"/>
<feColorMatrix in="SourceAlpha" type="matrix" values="0 0 0 0 0 0 0 0 0 0 0 0 0 0 0 0 0 0 127 0" result="hardAlpha_dhfZLrcVD0"/>
<feOffset dx="-3.52" dy="0"/>
<feComposite in2="hardAlpha_dhfZLrcVD0" operator="out"/>
<feColorMatrix type="matrix" values="0 0 0 0 0.996078431372549 0 0 0 0 0.3176470588235294 0 0 0 0 0.7529411764705882 0 0 0 1 0"/>
<feBlend mode="normal" in2="feFloodId_dhfZLrcVD0" result="dropShadow_1_dhfZLrcVD0"/>
<feColorMatrix in="SourceAlpha" type="matrix" values="0 0 0 0 0 0 0 0 0 0 0 0 0 0 0 0 0 0 127 0" result="hardAlpha_dhfZLrcVD0"/>
<feOffset dx="0" dy="7.04"/>
<feGaussianBlur stdDeviation="7.485"/>
<feComposite in2="hardAlpha_dhfZLrcVD0" operator="out"/>
<feColorMatrix type="matrix" values="0 0 0 0 0.9215686274509803 0 0 0 0 0.3137254901960784 0 0 0 0 0.9764705882352941 0 0 0 0.26 0"/>
<feBlend mode="normal" in2="feFloodId_dhfZLrcVD0" result="dropShadow_1_dhfZLrcVD0"/>
<feBlend mode="normal" in="SourceGraphic" in2="dropShadow_1_dhfZLrcVD0" result="shape_dhfZLrcVD0"/>
</filter>
<filter id="filter_fKnFtpYvU-" x="19.60546875" y="0" width="196.7536914062498" height="182.3459545898438" filterUnits="userSpaceOnUse" color-interpolation-filters="sRGB">
<feFlood flood-opacity="0" result="feFloodId_fKnFtpYvU-"/>
<feColorMatrix in="SourceAlpha" type="matrix" values="0 0 0 0 0 0 0 0 0 0 0 0 0 0 0 0 0 0 127 0" result="hardAlpha_fKnFtpYvU-"/>
<feOffset dx="3.52" dy="0"/>
<feComposite in2="hardAlpha_fKnFtpYvU-" operator="out"/>
<feColorMatrix type="matrix" values="0 0 0 0 0.2196078431372549 0 0 0 0 0.20392156862745098 0 0 0 0 0.9607843137254902 0 0 0 1 0"/>
<feBlend mode="normal" in2="feFloodId_fKnFtpYvU-" result="dropShadow_1_fKnFtpYvU-"/>
<feColorMatrix in="SourceAlpha" type="matrix" values="0 0 0 0 0 0 0 0 0 0 0 0 0 0 0 0 0 0 127 0" result="hardAlpha_fKnFtpYvU-"/>
<feOffset dx="-3.52" dy="0"/>
<feComposite in2="hardAlpha_fKnFtpYvU-" operator="out"/>
<feColorMatrix type="matrix" values="0 0 0 0 0.996078431372549 0 0 0 0 0.3176470588235294 0 0 0 0 0.7529411764705882 0 0 0 1 0"/>
<feBlend mode="normal" in2="feFloodId_fKnFtpYvU-" result="dropShadow_1_fKnFtpYvU-"/>
<feColorMatrix in="SourceAlpha" type="matrix" values="0 0 0 0 0 0 0 0 0 0 0 0 0 0 0 0 0 0 127 0" result="hardAlpha_fKnFtpYvU-"/>
<feOffset dx="0" dy="7.04"/>
<feGaussianBlur stdDeviation="7.485"/>
<feComposite in2="hardAlpha_fKnFtpYvU-" operator="out"/>
<feColorMatrix type="matrix" values="0 0 0 0 0.9215686274509803 0 0 0 0 0.3137254901960784 0 0 0 0 0.9764705882352941 0 0 0 0.26 0"/>
<feBlend mode="normal" in2="feFloodId_fKnFtpYvU-" result="dropShadow_1_fKnFtpYvU-"/>
<feBlend mode="normal" in="SourceGraphic" in2="dropShadow_1_fKnFtpYvU-" result="shape_fKnFtpYvU-"/>
</filter>
<filter id="filter_r1eLV8yWmP" x="49.08544921875" y="93.4495849609375" width="17.4939257812498" height="14.459785156250064" filterUnits="userSpaceOnUse" color-interpolation-filters="sRGB">
<feFlood flood-opacity="0" result="feFloodId_r1eLV8yWmP"/>
<feColorMatrix in="SourceAlpha" type="matrix" values="0 0 0 0 0 0 0 0 0 0 0 0 0 0 0 0 0 0 127 0" result="hardAlpha_r1eLV8yWmP"/>
<feOffset dx="3.52" dy="0"/>
<feComposite in2="hardAlpha_r1eLV8yWmP" operator="out"/>
<feColorMatrix type="matrix" values="0 0 0 0 0.2196078431372549 0 0 0 0 0.20392156862745098 0 0 0 0 0.9607843137254902 0 0 0 1 0"/>
<feBlend mode="normal" in2="feFloodId_r1eLV8yWmP" result="dropShadow_1_r1eLV8yWmP"/>
<feColorMatrix in="SourceAlpha" type="matrix" values="0 0 0 0 0 0 0 0 0 0 0 0 0 0 0 0 0 0 127 0" result="hardAlpha_r1eLV8yWmP"/>
<feOffset dx="-3.52" dy="0"/>
<feComposite in2="hardAlpha_r1eLV8yWmP" operator="out"/>
<feColorMatrix type="matrix" values="0 0 0 0 0.996078431372549 0 0 0 0 0.3176470588235294 0 0 0 0 0.7529411764705882 0 0 0 1 0"/>
<feBlend mode="normal" in2="feFloodId_r1eLV8yWmP" result="dropShadow_1_r1eLV8yWmP"/>
<feColorMatrix in="SourceAlpha" type="matrix" values="0 0 0 0 0 0 0 0 0 0 0 0 0 0 0 0 0 0 127 0" result="hardAlpha_r1eLV8yWmP"/>
<feOffset dx="0" dy="7.04"/>
<feGaussianBlur stdDeviation="7.485"/>
<feComposite in2="hardAlpha_r1eLV8yWmP" operator="out"/>
<feColorMatrix type="matrix" values="0 0 0 0 0.9215686274509803 0 0 0 0 0.3137254901960784 0 0 0 0 0.9764705882352941 0 0 0 0.26 0"/>
<feBlend mode="normal" in2="feFloodId_r1eLV8yWmP" result="dropShadow_1_r1eLV8yWmP"/>
<feBlend mode="normal" in="SourceGraphic" in2="dropShadow_1_r1eLV8yWmP" result="shape_r1eLV8yWmP"/>
</filter>
<filter id="filter_M2vQAvU-t_" x="142.157958984375" y="93.03826904296875" width="17.9262988281248" height="14.460822753906314" filterUnits="userSpaceOnUse" color-interpolation-filters="sRGB">
<feFlood flood-opacity="0" result="feFloodId_M2vQAvU-t_"/>
<feColorMatrix in="SourceAlpha" type="matrix" values="0 0 0 0 0 0 0 0 0 0 0 0 0 0 0 0 0 0 127 0" result="hardAlpha_M2vQAvU-t_"/>
<feOffset dx="3.52" dy="0"/>
<feComposite in2="hardAlpha_M2vQAvU-t_" operator="out"/>
<feColorMatrix type="matrix" values="0 0 0 0 0.2196078431372549 0 0 0 0 0.20392156862745098 0 0 0 0 0.9607843137254902 0 0 0 1 0"/>
<feBlend mode="normal" in2="feFloodId_M2vQAvU-t_" result="dropShadow_1_M2vQAvU-t_"/>
<feColorMatrix in="SourceAlpha" type="matrix" values="0 0 0 0 0 0 0 0 0 0 0 0 0 0 0 0 0 0 127 0" result="hardAlpha_M2vQAvU-t_"/>
<feOffset dx="-3.52" dy="0"/>
<feComposite in2="hardAlpha_M2vQAvU-t_" operator="out"/>
<feColorMatrix type="matrix" values="0 0 0 0 0.996078431372549 0 0 0 0 0.3176470588235294 0 0 0 0 0.7529411764705882 0 0 0 1 0"/>
<feBlend mode="normal" in2="feFloodId_M2vQAvU-t_" result="dropShadow_1_M2vQAvU-t_"/>
<feColorMatrix in="SourceAlpha" type="matrix" values="0 0 0 0 0 0 0 0 0 0 0 0 0 0 0 0 0 0 127 0" result="hardAlpha_M2vQAvU-t_"/>
<feOffset dx="0" dy="7.04"/>
<feGaussianBlur stdDeviation="7.485"/>
<feComposite in2="hardAlpha_M2vQAvU-t_" operator="out"/>
<feColorMatrix type="matrix" values="0 0 0 0 0.9215686274509803 0 0 0 0 0.3137254901960784 0 0 0 0 0.9764705882352941 0 0 0 0.26 0"/>
<feBlend mode="normal" in2="feFloodId_M2vQAvU-t_" result="dropShadow_1_M2vQAvU-t_"/>
<feBlend mode="normal" in="SourceGraphic" in2="dropShadow_1_M2vQAvU-t_" result="shape_M2vQAvU-t_"/>
</filter>
<filter id="filter_RQIECQPcwN" x="68.81005859375" y="84.91595458984375" width="28.0801074218748" height="21.039985351562564" filterUnits="userSpaceOnUse" color-interpolation-filters="sRGB">
<feFlood flood-opacity="0" result="feFloodId_RQIECQPcwN"/>
<feColorMatrix in="SourceAlpha" type="matrix" values="0 0 0 0 0 0 0 0 0 0 0 0 0 0 0 0 0 0 127 0" result="hardAlpha_RQIECQPcwN"/>
<feOffset dx="3.52" dy="0"/>
<feComposite in2="hardAlpha_RQIECQPcwN" operator="out"/>
<feColorMatrix type="matrix" values="0 0 0 0 0.2196078431372549 0 0 0 0 0.20392156862745098 0 0 0 0 0.9607843137254902 0 0 0 1 0"/>
<feBlend mode="normal" in2="feFloodId_RQIECQPcwN" result="dropShadow_1_RQIECQPcwN"/>
<feColorMatrix in="SourceAlpha" type="matrix" values="0 0 0 0 0 0 0 0 0 0 0 0 0 0 0 0 0 0 127 0" result="hardAlpha_RQIECQPcwN"/>
<feOffset dx="-3.52" dy="0"/>
<feComposite in2="hardAlpha_RQIECQPcwN" operator="out"/>
<feColorMatrix type="matrix" values="0 0 0 0 0.996078431372549 0 0 0 0 0.3176470588235294 0 0 0 0 0.7529411764705882 0 0 0 1 0"/>
<feBlend mode="normal" in2="feFloodId_RQIECQPcwN" result="dropShadow_1_RQIECQPcwN"/>
<feColorMatrix in="SourceAlpha" type="matrix" values="0 0 0 0 0 0 0 0 0 0 0 0 0 0 0 0 0 0 127 0" result="hardAlpha_RQIECQPcwN"/>
<feOffset dx="0" dy="7.04"/>
<feGaussianBlur stdDeviation="7.485"/>
<feComposite in2="hardAlpha_RQIECQPcwN" operator="out"/>
<feColorMatrix type="matrix" values="0 0 0 0 0.9215686274509803 0 0 0 0 0.3137254901960784 0 0 0 0 0.9764705882352941 0 0 0 0.26 0"/>
<feBlend mode="normal" in2="feFloodId_RQIECQPcwN" result="dropShadow_1_RQIECQPcwN"/>
<feBlend mode="normal" in="SourceGraphic" in2="dropShadow_1_RQIECQPcwN" result="shape_RQIECQPcwN"/>
</filter>
<filter id="filter_5_AbywSYzP" x="116.320068359375" y="83.6959228515625" width="28.0801074218748" height="21.039985351562564" filterUnits="userSpaceOnUse" color-interpolation-filters="sRGB">
<feFlood flood-opacity="0" result="feFloodId_5_AbywSYzP"/>
<feColorMatrix in="SourceAlpha" type="matrix" values="0 0 0 0 0 0 0 0 0 0 0 0 0 0 0 0 0 0 127 0" result="hardAlpha_5_AbywSYzP"/>
<feOffset dx="3.52" dy="0"/>
<feComposite in2="hardAlpha_5_AbywSYzP" operator="out"/>
<feColorMatrix type="matrix" values="0 0 0 0 0.2196078431372549 0 0 0 0 0.20392156862745098 0 0 0 0 0.9607843137254902 0 0 0 1 0"/>
<feBlend mode="normal" in2="feFloodId_5_AbywSYzP" result="dropShadow_1_5_AbywSYzP"/>
<feColorMatrix in="SourceAlpha" type="matrix" values="0 0 0 0 0 0 0 0 0 0 0 0 0 0 0 0 0 0 127 0" result="hardAlpha_5_AbywSYzP"/>
<feOffset dx="-3.52" dy="0"/>
<feComposite in2="hardAlpha_5_AbywSYzP" operator="out"/>
<feColorMatrix type="matrix" values="0 0 0 0 0.996078431372549 0 0 0 0 0.3176470588235294 0 0 0 0 0.7529411764705882 0 0 0 1 0"/>
<feBlend mode="normal" in2="feFloodId_5_AbywSYzP" result="dropShadow_1_5_AbywSYzP"/>
<feColorMatrix in="SourceAlpha" type="matrix" values="0 0 0 0 0 0 0 0 0 0 0 0 0 0 0 0 0 0 127 0" result="hardAlpha_5_AbywSYzP"/>
<feOffset dx="0" dy="7.04"/>
<feGaussianBlur stdDeviation="7.485"/>
<feComposite in2="hardAlpha_5_AbywSYzP" operator="out"/>
<feColorMatrix type="matrix" values="0 0 0 0 0.9215686274509803 0 0 0 0 0.3137254901960784 0 0 0 0 0.9764705882352941 0 0 0 0.26 0"/>
<feBlend mode="normal" in2="feFloodId_5_AbywSYzP" result="dropShadow_1_5_AbywSYzP"/>
<feBlend mode="normal" in="SourceGraphic" in2="dropShadow_1_5_AbywSYzP" result="shape_5_AbywSYzP"/>
</filter>
<filter id="filter_N9EnNDBwLE" x="0" y="127.64154052734375" width="229.1799609374998" height="97.91437500000006" filterUnits="userSpaceOnUse" color-interpolation-filters="sRGB">
<feFlood flood-opacity="0" result="feFloodId_N9EnNDBwLE"/>
<feColorMatrix in="SourceAlpha" type="matrix" values="0 0 0 0 0 0 0 0 0 0 0 0 0 0 0 0 0 0 127 0" result="hardAlpha_N9EnNDBwLE"/>
<feOffset dx="3.52" dy="0"/>
<feComposite in2="hardAlpha_N9EnNDBwLE" operator="out"/>
<feColorMatrix type="matrix" values="0 0 0 0 0.2196078431372549 0 0 0 0 0.20392156862745098 0 0 0 0 0.9607843137254902 0 0 0 1 0"/>
<feBlend mode="normal" in2="feFloodId_N9EnNDBwLE" result="dropShadow_1_N9EnNDBwLE"/>
<feColorMatrix in="SourceAlpha" type="matrix" values="0 0 0 0 0 0 0 0 0 0 0 0 0 0 0 0 0 0 127 0" result="hardAlpha_N9EnNDBwLE"/>
<feOffset dx="-3.52" dy="0"/>
<feComposite in2="hardAlpha_N9EnNDBwLE" operator="out"/>
<feColorMatrix type="matrix" values="0 0 0 0 0.996078431372549 0 0 0 0 0.3176470588235294 0 0 0 0 0.7529411764705882 0 0 0 1 0"/>
<feBlend mode="normal" in2="feFloodId_N9EnNDBwLE" result="dropShadow_1_N9EnNDBwLE"/>
<feColorMatrix in="SourceAlpha" type="matrix" values="0 0 0 0 0 0 0 0 0 0 0 0 0 0 0 0 0 0 127 0" result="hardAlpha_N9EnNDBwLE"/>
<feOffset dx="0" dy="7.04"/>
<feGaussianBlur stdDeviation="7.485"/>
<feComposite in2="hardAlpha_N9EnNDBwLE" operator="out"/>
<feColorMatrix type="matrix" values="0 0 0 0 0.9215686274509803 0 0 0 0 0.3137254901960784 0 0 0 0 0.9764705882352941 0 0 0 0.26 0"/>
<feBlend mode="normal" in2="feFloodId_N9EnNDBwLE" result="dropShadow_1_N9EnNDBwLE"/>
<feBlend mode="normal" in="SourceGraphic" in2="dropShadow_1_N9EnNDBwLE" result="shape_N9EnNDBwLE"/>
</filter>
<filter id="filter_eqhCXx1Lw0" x="77.820068359375" y="112.77593994140625" width="55.5200488281248" height="49.710029296875064" filterUnits="userSpaceOnUse" color-interpolation-filters="sRGB">
<feFlood flood-opacity="0" result="feFloodId_eqhCXx1Lw0"/>
<feColorMatrix in="SourceAlpha" type="matrix" values="0 0 0 0 0 0 0 0 0 0 0 0 0 0 0 0 0 0 127 0" result="hardAlpha_eqhCXx1Lw0"/>
<feOffset dx="3.52" dy="0"/>
<feComposite in2="hardAlpha_eqhCXx1Lw0" operator="out"/>
<feColorMatrix type="matrix" values="0 0 0 0 0.2196078431372549 0 0 0 0 0.20392156862745098 0 0 0 0 0.9607843137254902 0 0 0 1 0"/>
<feBlend mode="normal" in2="feFloodId_eqhCXx1Lw0" result="dropShadow_1_eqhCXx1Lw0"/>
<feColorMatrix in="SourceAlpha" type="matrix" values="0 0 0 0 0 0 0 0 0 0 0 0 0 0 0 0 0 0 127 0" result="hardAlpha_eqhCXx1Lw0"/>
<feOffset dx="-3.52" dy="0"/>
<feComposite in2="hardAlpha_eqhCXx1Lw0" operator="out"/>
<feColorMatrix type="matrix" values="0 0 0 0 0.996078431372549 0 0 0 0 0.3176470588235294 0 0 0 0 0.7529411764705882 0 0 0 1 0"/>
<feBlend mode="normal" in2="feFloodId_eqhCXx1Lw0" result="dropShadow_1_eqhCXx1Lw0"/>
<feColorMatrix in="SourceAlpha" type="matrix" values="0 0 0 0 0 0 0 0 0 0 0 0 0 0 0 0 0 0 127 0" result="hardAlpha_eqhCXx1Lw0"/>
<feOffset dx="0" dy="7.04"/>
<feGaussianBlur stdDeviation="7.485"/>
<feComposite in2="hardAlpha_eqhCXx1Lw0" operator="out"/>
<feColorMatrix type="matrix" values="0 0 0 0 0.9215686274509803 0 0 0 0 0.3137254901960784 0 0 0 0 0.9764705882352941 0 0 0 0.26 0"/>
<feBlend mode="normal" in2="feFloodId_eqhCXx1Lw0" result="dropShadow_1_eqhCXx1Lw0"/>
<feBlend mode="normal" in="SourceGraphic" in2="dropShadow_1_eqhCXx1Lw0" result="shape_eqhCXx1Lw0"/>
</filter>
<filter id="filter_ahEio0xbeg" x="77.820068359375" y="121.37591552734375" width="55.5200488281248" height="24.106940917968814" filterUnits="userSpaceOnUse" color-interpolation-filters="sRGB">
<feFlood flood-opacity="0" result="feFloodId_ahEio0xbeg"/>
<feColorMatrix in="SourceAlpha" type="matrix" values="0 0 0 0 0 0 0 0 0 0 0 0 0 0 0 0 0 0 127 0" result="hardAlpha_ahEio0xbeg"/>
<feOffset dx="3.52" dy="0"/>
<feComposite in2="hardAlpha_ahEio0xbeg" operator="out"/>
<feColorMatrix type="matrix" values="0 0 0 0 0.2196078431372549 0 0 0 0 0.20392156862745098 0 0 0 0 0.9607843137254902 0 0 0 1 0"/>
<feBlend mode="normal" in2="feFloodId_ahEio0xbeg" result="dropShadow_1_ahEio0xbeg"/>
<feColorMatrix in="SourceAlpha" type="matrix" values="0 0 0 0 0 0 0 0 0 0 0 0 0 0 0 0 0 0 127 0" result="hardAlpha_ahEio0xbeg"/>
<feOffset dx="-3.52" dy="0"/>
<feComposite in2="hardAlpha_ahEio0xbeg" operator="out"/>
<feColorMatrix type="matrix" values="0 0 0 0 0.996078431372549 0 0 0 0 0.3176470588235294 0 0 0 0 0.7529411764705882 0 0 0 1 0"/>
<feBlend mode="normal" in2="feFloodId_ahEio0xbeg" result="dropShadow_1_ahEio0xbeg"/>
<feColorMatrix in="SourceAlpha" type="matrix" values="0 0 0 0 0 0 0 0 0 0 0 0 0 0 0 0 0 0 127 0" result="hardAlpha_ahEio0xbeg"/>
<feOffset dx="0" dy="7.04"/>
<feGaussianBlur stdDeviation="7.485"/>
<feComposite in2="hardAlpha_ahEio0xbeg" operator="out"/>
<feColorMatrix type="matrix" values="0 0 0 0 0.9215686274509803 0 0 0 0 0.3137254901960784 0 0 0 0 0.9764705882352941 0 0 0 0.26 0"/>
<feBlend mode="normal" in2="feFloodId_ahEio0xbeg" result="dropShadow_1_ahEio0xbeg"/>
<feBlend mode="normal" in="SourceGraphic" in2="dropShadow_1_ahEio0xbeg" result="shape_ahEio0xbeg"/>
</filter>
<filter id="filter_FAyS-SZxRH" x="84.780029296875" y="105.39593505859375" width="40.8498828124998" height="21.100898437500064" filterUnits="userSpaceOnUse" color-interpolation-filters="sRGB">
<feFlood flood-opacity="0" result="feFloodId_FAyS-SZxRH"/>
<feColorMatrix in="SourceAlpha" type="matrix" values="0 0 0 0 0 0 0 0 0 0 0 0 0 0 0 0 0 0 127 0" result="hardAlpha_FAyS-SZxRH"/>
<feOffset dx="3.52" dy="0"/>
<feComposite in2="hardAlpha_FAyS-SZxRH" operator="out"/>
<feColorMatrix type="matrix" values="0 0 0 0 0.2196078431372549 0 0 0 0 0.20392156862745098 0 0 0 0 0.9607843137254902 0 0 0 1 0"/>
<feBlend mode="normal" in2="feFloodId_FAyS-SZxRH" result="dropShadow_1_FAyS-SZxRH"/>
<feColorMatrix in="SourceAlpha" type="matrix" values="0 0 0 0 0 0 0 0 0 0 0 0 0 0 0 0 0 0 127 0" result="hardAlpha_FAyS-SZxRH"/>
<feOffset dx="-3.52" dy="0"/>
<feComposite in2="hardAlpha_FAyS-SZxRH" operator="out"/>
<feColorMatrix type="matrix" values="0 0 0 0 0.996078431372549 0 0 0 0 0.3176470588235294 0 0 0 0 0.7529411764705882 0 0 0 1 0"/>
<feBlend mode="normal" in2="feFloodId_FAyS-SZxRH" result="dropShadow_1_FAyS-SZxRH"/>
<feColorMatrix in="SourceAlpha" type="matrix" values="0 0 0 0 0 0 0 0 0 0 0 0 0 0 0 0 0 0 127 0" result="hardAlpha_FAyS-SZxRH"/>
<feOffset dx="0" dy="7.04"/>
<feGaussianBlur stdDeviation="7.485"/>
<feComposite in2="hardAlpha_FAyS-SZxRH" operator="out"/>
<feColorMatrix type="matrix" values="0 0 0 0 0.9215686274509803 0 0 0 0 0.3137254901960784 0 0 0 0 0.9764705882352941 0 0 0 0.26 0"/>
<feBlend mode="normal" in2="feFloodId_FAyS-SZxRH" result="dropShadow_1_FAyS-SZxRH"/>
<feBlend mode="normal" in="SourceGraphic" in2="dropShadow_1_FAyS-SZxRH" result="shape_FAyS-SZxRH"/>
</filter>
<filter id="filter_t2bXr-zP6A" x="87.147705078125" y="110.72589111328125" width="33.2715136718748" height="15.625922851562564" filterUnits="userSpaceOnUse" color-interpolation-filters="sRGB">
<feFlood flood-opacity="0" result="feFloodId_t2bXr-zP6A"/>
<feColorMatrix in="SourceAlpha" type="matrix" values="0 0 0 0 0 0 0 0 0 0 0 0 0 0 0 0 0 0 127 0" result="hardAlpha_t2bXr-zP6A"/>
<feOffset dx="3.52" dy="0"/>
<feComposite in2="hardAlpha_t2bXr-zP6A" operator="out"/>
<feColorMatrix type="matrix" values="0 0 0 0 0.2196078431372549 0 0 0 0 0.20392156862745098 0 0 0 0 0.9607843137254902 0 0 0 1 0"/>
<feBlend mode="normal" in2="feFloodId_t2bXr-zP6A" result="dropShadow_1_t2bXr-zP6A"/>
<feColorMatrix in="SourceAlpha" type="matrix" values="0 0 0 0 0 0 0 0 0 0 0 0 0 0 0 0 0 0 127 0" result="hardAlpha_t2bXr-zP6A"/>
<feOffset dx="-3.52" dy="0"/>
<feComposite in2="hardAlpha_t2bXr-zP6A" operator="out"/>
<feColorMatrix type="matrix" values="0 0 0 0 0.996078431372549 0 0 0 0 0.3176470588235294 0 0 0 0 0.7529411764705882 0 0 0 1 0"/>
<feBlend mode="normal" in2="feFloodId_t2bXr-zP6A" result="dropShadow_1_t2bXr-zP6A"/>
<feColorMatrix in="SourceAlpha" type="matrix" values="0 0 0 0 0 0 0 0 0 0 0 0 0 0 0 0 0 0 127 0" result="hardAlpha_t2bXr-zP6A"/>
<feOffset dx="0" dy="7.04"/>
<feGaussianBlur stdDeviation="7.485"/>
<feComposite in2="hardAlpha_t2bXr-zP6A" operator="out"/>
<feColorMatrix type="matrix" values="0 0 0 0 0.9215686274509803 0 0 0 0 0.3137254901960784 0 0 0 0 0.9764705882352941 0 0 0 0.26 0"/>
<feBlend mode="normal" in2="feFloodId_t2bXr-zP6A" result="dropShadow_1_t2bXr-zP6A"/>
<feBlend mode="normal" in="SourceGraphic" in2="dropShadow_1_t2bXr-zP6A" result="shape_t2bXr-zP6A"/>
</filter>
<filter id="filter_1xqZ9bFPMd" x="53.68994140625" y="171.91229248046875" width="139.7544238281248" height="54.387580566406314" filterUnits="userSpaceOnUse" color-interpolation-filters="sRGB">
<feFlood flood-opacity="0" result="feFloodId_1xqZ9bFPMd"/>
<feColorMatrix in="SourceAlpha" type="matrix" values="0 0 0 0 0 0 0 0 0 0 0 0 0 0 0 0 0 0 127 0" result="hardAlpha_1xqZ9bFPMd"/>
<feOffset dx="3.52" dy="0"/>
<feComposite in2="hardAlpha_1xqZ9bFPMd" operator="out"/>
<feColorMatrix type="matrix" values="0 0 0 0 0.2196078431372549 0 0 0 0 0.20392156862745098 0 0 0 0 0.9607843137254902 0 0 0 1 0"/>
<feBlend mode="normal" in2="feFloodId_1xqZ9bFPMd" result="dropShadow_1_1xqZ9bFPMd"/>
<feColorMatrix in="SourceAlpha" type="matrix" values="0 0 0 0 0 0 0 0 0 0 0 0 0 0 0 0 0 0 127 0" result="hardAlpha_1xqZ9bFPMd"/>
<feOffset dx="-3.52" dy="0"/>
<feComposite in2="hardAlpha_1xqZ9bFPMd" operator="out"/>
<feColorMatrix type="matrix" values="0 0 0 0 0.996078431372549 0 0 0 0 0.3176470588235294 0 0 0 0 0.7529411764705882 0 0 0 1 0"/>
<feBlend mode="normal" in2="feFloodId_1xqZ9bFPMd" result="dropShadow_1_1xqZ9bFPMd"/>
<feColorMatrix in="SourceAlpha" type="matrix" values="0 0 0 0 0 0 0 0 0 0 0 0 0 0 0 0 0 0 127 0" result="hardAlpha_1xqZ9bFPMd"/>
<feOffset dx="0" dy="7.04"/>
<feGaussianBlur stdDeviation="7.485"/>
<feComposite in2="hardAlpha_1xqZ9bFPMd" operator="out"/>
<feColorMatrix type="matrix" values="0 0 0 0 0.9215686274509803 0 0 0 0 0.3137254901960784 0 0 0 0 0.9764705882352941 0 0 0 0.26 0"/>
<feBlend mode="normal" in2="feFloodId_1xqZ9bFPMd" result="dropShadow_1_1xqZ9bFPMd"/>
<feBlend mode="normal" in="SourceGraphic" in2="dropShadow_1_1xqZ9bFPMd" result="shape_1xqZ9bFPMd"/>
</filter>
<filter id="filter_TXsJPsdV7u" x="139.79541015625" y="72.20733642578125" width="24.7243945312498" height="27.161811523437564" filterUnits="userSpaceOnUse" color-interpolation-filters="sRGB">
<feFlood flood-opacity="0" result="feFloodId_TXsJPsdV7u"/>
<feColorMatrix in="SourceAlpha" type="matrix" values="0 0 0 0 0 0 0 0 0 0 0 0 0 0 0 0 0 0 127 0" result="hardAlpha_TXsJPsdV7u"/>
<feOffset dx="3.52" dy="0"/>
<feComposite in2="hardAlpha_TXsJPsdV7u" operator="out"/>
<feColorMatrix type="matrix" values="0 0 0 0 0.2196078431372549 0 0 0 0 0.20392156862745098 0 0 0 0 0.9607843137254902 0 0 0 1 0"/>
<feBlend mode="normal" in2="feFloodId_TXsJPsdV7u" result="dropShadow_1_TXsJPsdV7u"/>
<feColorMatrix in="SourceAlpha" type="matrix" values="0 0 0 0 0 0 0 0 0 0 0 0 0 0 0 0 0 0 127 0" result="hardAlpha_TXsJPsdV7u"/>
<feOffset dx="-3.52" dy="0"/>
<feComposite in2="hardAlpha_TXsJPsdV7u" operator="out"/>
<feColorMatrix type="matrix" values="0 0 0 0 0.996078431372549 0 0 0 0 0.3176470588235294 0 0 0 0 0.7529411764705882 0 0 0 1 0"/>
<feBlend mode="normal" in2="feFloodId_TXsJPsdV7u" result="dropShadow_1_TXsJPsdV7u"/>
<feColorMatrix in="SourceAlpha" type="matrix" values="0 0 0 0 0 0 0 0 0 0 0 0 0 0 0 0 0 0 127 0" result="hardAlpha_TXsJPsdV7u"/>
<feOffset dx="0" dy="7.04"/>
<feGaussianBlur stdDeviation="7.485"/>
<feComposite in2="hardAlpha_TXsJPsdV7u" operator="out"/>
<feColorMatrix type="matrix" values="0 0 0 0 0.9215686274509803 0 0 0 0 0.3137254901960784 0 0 0 0 0.9764705882352941 0 0 0 0.26 0"/>
<feBlend mode="normal" in2="feFloodId_TXsJPsdV7u" result="dropShadow_1_TXsJPsdV7u"/>
<feBlend mode="normal" in="SourceGraphic" in2="dropShadow_1_TXsJPsdV7u" result="shape_TXsJPsdV7u"/>
</filter>
<filter id="filter_Dq4eLoy3xp" x="84.3984375" y="175.86962890625" width="83.5451953124998" height="37.812812500000064" filterUnits="userSpaceOnUse" color-interpolation-filters="sRGB">
<feFlood flood-opacity="0" result="feFloodId_Dq4eLoy3xp"/>
<feColorMatrix in="SourceAlpha" type="matrix" values="0 0 0 0 0 0 0 0 0 0 0 0 0 0 0 0 0 0 127 0" result="hardAlpha_Dq4eLoy3xp"/>
<feOffset dx="3.52" dy="0"/>
<feComposite in2="hardAlpha_Dq4eLoy3xp" operator="out"/>
<feColorMatrix type="matrix" values="0 0 0 0 0.2196078431372549 0 0 0 0 0.20392156862745098 0 0 0 0 0.9607843137254902 0 0 0 1 0"/>
<feBlend mode="normal" in2="feFloodId_Dq4eLoy3xp" result="dropShadow_1_Dq4eLoy3xp"/>
<feColorMatrix in="SourceAlpha" type="matrix" values="0 0 0 0 0 0 0 0 0 0 0 0 0 0 0 0 0 0 127 0" result="hardAlpha_Dq4eLoy3xp"/>
<feOffset dx="-3.52" dy="0"/>
<feComposite in2="hardAlpha_Dq4eLoy3xp" operator="out"/>
<feColorMatrix type="matrix" values="0 0 0 0 0.996078431372549 0 0 0 0 0.3176470588235294 0 0 0 0 0.7529411764705882 0 0 0 1 0"/>
<feBlend mode="normal" in2="feFloodId_Dq4eLoy3xp" result="dropShadow_1_Dq4eLoy3xp"/>
<feColorMatrix in="SourceAlpha" type="matrix" values="0 0 0 0 0 0 0 0 0 0 0 0 0 0 0 0 0 0 127 0" result="hardAlpha_Dq4eLoy3xp"/>
<feOffset dx="0" dy="7.04"/>
<feGaussianBlur stdDeviation="7.485"/>
<feComposite in2="hardAlpha_Dq4eLoy3xp" operator="out"/>
<feColorMatrix type="matrix" values="0 0 0 0 0.9215686274509803 0 0 0 0 0.3137254901960784 0 0 0 0 0.9764705882352941 0 0 0 0.26 0"/>
<feBlend mode="normal" in2="feFloodId_Dq4eLoy3xp" result="dropShadow_1_Dq4eLoy3xp"/>
<feBlend mode="normal" in="SourceGraphic" in2="dropShadow_1_Dq4eLoy3xp" result="shape_Dq4eLoy3xp"/>
</filter>
<filter id="filter_yWpJd53gyf" x="46.0751953125" y="97.99267578125" width="24.9226367187498" height="16.185615234375064" filterUnits="userSpaceOnUse" color-interpolation-filters="sRGB">
<feFlood flood-opacity="0" result="feFloodId_yWpJd53gyf"/>
<feColorMatrix in="SourceAlpha" type="matrix" values="0 0 0 0 0 0 0 0 0 0 0 0 0 0 0 0 0 0 127 0" result="hardAlpha_yWpJd53gyf"/>
<feOffset dx="3.52" dy="0"/>
<feComposite in2="hardAlpha_yWpJd53gyf" operator="out"/>
<feColorMatrix type="matrix" values="0 0 0 0 0.2196078431372549 0 0 0 0 0.20392156862745098 0 0 0 0 0.9607843137254902 0 0 0 1 0"/>
<feBlend mode="normal" in2="feFloodId_yWpJd53gyf" result="dropShadow_1_yWpJd53gyf"/>
<feColorMatrix in="SourceAlpha" type="matrix" values="0 0 0 0 0 0 0 0 0 0 0 0 0 0 0 0 0 0 127 0" result="hardAlpha_yWpJd53gyf"/>
<feOffset dx="-3.52" dy="0"/>
<feComposite in2="hardAlpha_yWpJd53gyf" operator="out"/>
<feColorMatrix type="matrix" values="0 0 0 0 0.996078431372549 0 0 0 0 0.3176470588235294 0 0 0 0 0.7529411764705882 0 0 0 1 0"/>
<feBlend mode="normal" in2="feFloodId_yWpJd53gyf" result="dropShadow_1_yWpJd53gyf"/>
<feColorMatrix in="SourceAlpha" type="matrix" values="0 0 0 0 0 0 0 0 0 0 0 0 0 0 0 0 0 0 127 0" result="hardAlpha_yWpJd53gyf"/>
<feOffset dx="0" dy="7.04"/>
<feGaussianBlur stdDeviation="7.485"/>
<feComposite in2="hardAlpha_yWpJd53gyf" operator="out"/>
<feColorMatrix type="matrix" values="0 0 0 0 0.9215686274509803 0 0 0 0 0.3137254901960784 0 0 0 0 0.9764705882352941 0 0 0 0.26 0"/>
<feBlend mode="normal" in2="feFloodId_yWpJd53gyf" result="dropShadow_1_yWpJd53gyf"/>
<feBlend mode="normal" in="SourceGraphic" in2="dropShadow_1_yWpJd53gyf" result="shape_yWpJd53gyf"/>
</filter>
<filter id="filter_KqckXlSVjz" x="138.5087890625" y="97.71343994140625" width="24.9065234374998" height="16.034187011718814" filterUnits="userSpaceOnUse" color-interpolation-filters="sRGB">
<feFlood flood-opacity="0" result="feFloodId_KqckXlSVjz"/>
<feColorMatrix in="SourceAlpha" type="matrix" values="0 0 0 0 0 0 0 0 0 0 0 0 0 0 0 0 0 0 127 0" result="hardAlpha_KqckXlSVjz"/>
<feOffset dx="3.52" dy="0"/>
<feComposite in2="hardAlpha_KqckXlSVjz" operator="out"/>
<feColorMatrix type="matrix" values="0 0 0 0 0.2196078431372549 0 0 0 0 0.20392156862745098 0 0 0 0 0.9607843137254902 0 0 0 1 0"/>
<feBlend mode="normal" in2="feFloodId_KqckXlSVjz" result="dropShadow_1_KqckXlSVjz"/>
<feColorMatrix in="SourceAlpha" type="matrix" values="0 0 0 0 0 0 0 0 0 0 0 0 0 0 0 0 0 0 127 0" result="hardAlpha_KqckXlSVjz"/>
<feOffset dx="-3.52" dy="0"/>
<feComposite in2="hardAlpha_KqckXlSVjz" operator="out"/>
<feColorMatrix type="matrix" values="0 0 0 0 0.996078431372549 0 0 0 0 0.3176470588235294 0 0 0 0 0.7529411764705882 0 0 0 1 0"/>
<feBlend mode="normal" in2="feFloodId_KqckXlSVjz" result="dropShadow_1_KqckXlSVjz"/>
<feColorMatrix in="SourceAlpha" type="matrix" values="0 0 0 0 0 0 0 0 0 0 0 0 0 0 0 0 0 0 127 0" result="hardAlpha_KqckXlSVjz"/>
<feOffset dx="0" dy="7.04"/>
<feGaussianBlur stdDeviation="7.485"/>
<feComposite in2="hardAlpha_KqckXlSVjz" operator="out"/>
<feColorMatrix type="matrix" values="0 0 0 0 0.9215686274509803 0 0 0 0 0.3137254901960784 0 0 0 0 0.9764705882352941 0 0 0 0.26 0"/>
<feBlend mode="normal" in2="feFloodId_KqckXlSVjz" result="dropShadow_1_KqckXlSVjz"/>
<feBlend mode="normal" in="SourceGraphic" in2="dropShadow_1_KqckXlSVjz" result="shape_KqckXlSVjz"/>
</filter>
</defs>
</svg>
