<svg xmlns="http://www.w3.org/2000/svg" xmlns:xlink="http://www.w3.org/1999/xlink" width="341.847900390625" height="322.1700439453125" viewBox="0 0 341.847900390625 322.1700439453125" fill="none">
<path   fill-rule="evenodd"  fill="url(#linear_fill_gZpsppHGch_0)" fill-opacity="0.7200000286102295" d="M0.0434827 312.724L30.5424 7.73627C30.9816 3.34448 34.6772 0 39.0909 0L302.757 0C307.171 0 310.866 3.34448 311.305 7.73627L341.804 312.724C342.31 317.781 338.338 322.17 333.256 322.17L8.59197 322.17C3.50927 322.17 -0.462268 317.781 0.0434827 312.724ZM184.434 79.7867Q193.582 76.7774 201.825 68.5366L201.072 67.7834Q193.009 75.8449 184.101 78.775Q176.437 81.2962 168.472 79.9314Q164.988 79.3344 161.552 78.0044Q158.428 76.7953 155.457 75.0259Q152.769 73.4257 150.366 71.4656Q148.188 69.689 146.462 67.8008L145.676 68.5192Q147.454 70.4651 149.693 72.2909Q152.157 74.3007 154.912 75.941Q157.96 77.7562 161.168 78.9976Q164.703 80.3661 168.292 80.9811Q176.518 82.3907 184.434 79.7867Z">
</path>
<path fill-rule="evenodd"  fill="url(#linear_border_gZpsppHGch_0)"  d="M30.5424 7.73627L0.0434827 312.724C-0.462268 317.781 3.50927 322.17 8.59197 322.17L333.256 322.17C338.338 322.17 342.31 317.781 341.804 312.724L311.305 7.73627C310.866 3.34448 307.171 0 302.757 0L39.0909 0C34.6772 0 30.9816 3.34448 30.5424 7.73627ZM8.59197 321.105C4.13936 321.105 0.660157 317.261 1.10321 312.83L31.6022 7.84225Q31.8907 4.95673 34.0409 3.01087Q36.191 1.06501 39.0909 1.06501L302.757 1.06502Q305.657 1.06502 307.807 3.01087Q309.957 4.95667 310.246 7.84224L340.745 312.83C341.188 317.261 337.708 321.105 333.256 321.105L8.59197 321.105ZM168.112 82.0308Q176.599 83.4852 184.767 80.7984Q194.156 77.7098 202.578 69.2898L203.332 68.5368L201.073 66.2772L200.319 67.0302Q192.435 74.9125 183.769 77.7633Q176.356 80.2018 168.652 78.8816Q165.273 78.3027 161.937 77.0112Q158.896 75.8344 156.002 74.1108Q153.381 72.5508 151.039 70.6402Q148.921 68.913 147.248 67.0823L146.53 66.2961L144.171 68.4515L144.89 69.2377Q146.72 71.2411 149.02 73.1162Q151.545 75.1756 154.367 76.8561Q157.492 78.717 160.783 79.9908Q164.418 81.3978 168.112 82.0308ZM201.054 67.8021Q192.998 75.8483 184.101 78.775Q183.143 79.0902 182.181 79.3446Q175.441 81.1256 168.472 79.9314Q164.988 79.3344 161.552 78.0044Q158.428 76.7953 155.457 75.0259Q152.769 73.4257 150.366 71.4656Q148.188 69.6891 146.462 67.8008L145.676 68.5192L145.688 68.5329Q146.039 68.9159 146.407 69.294Q147.902 70.8308 149.693 72.2909Q152.157 74.3007 154.912 75.941Q157.96 77.7562 161.168 78.9976Q164.703 80.3661 168.292 80.9811Q176.518 82.3907 184.434 79.7867Q185.006 79.5986 185.574 79.3901Q193.68 76.4157 201.066 69.2831Q201.446 68.9159 201.825 68.5374L201.825 68.5366L201.072 67.7834L201.072 67.7839L201.054 67.8021Z">
</path>
<path fill-rule="evenodd"  fill="url(#linear_border_gZpsppHGch_1)"  d="M30.5424 7.73627L0.0434827 312.724C-0.462268 317.781 3.50927 322.17 8.59197 322.17L333.256 322.17C338.338 322.17 342.31 317.781 341.804 312.724L311.305 7.73627C310.866 3.34448 307.171 0 302.757 0L39.0909 0C34.6772 0 30.9816 3.34448 30.5424 7.73627ZM8.59197 321.105C4.13936 321.105 0.660157 317.261 1.10321 312.83L31.6022 7.84225Q31.8907 4.95673 34.0409 3.01087Q36.191 1.06501 39.0909 1.06501L302.757 1.06502Q305.657 1.06502 307.807 3.01087Q309.957 4.95667 310.246 7.84224L340.745 312.83C341.188 317.261 337.708 321.105 333.256 321.105L8.59197 321.105ZM168.112 82.0308Q176.599 83.4852 184.767 80.7984Q194.156 77.7098 202.578 69.2898L203.332 68.5368L201.073 66.2772L200.319 67.0302Q192.435 74.9125 183.769 77.7633Q176.356 80.2018 168.652 78.8816Q165.273 78.3027 161.937 77.0112Q158.896 75.8344 156.002 74.1108Q153.381 72.5508 151.039 70.6402Q148.921 68.913 147.248 67.0823L146.53 66.2961L144.171 68.4515L144.89 69.2377Q146.72 71.2411 149.02 73.1162Q151.545 75.1756 154.367 76.8561Q157.492 78.717 160.783 79.9908Q164.418 81.3978 168.112 82.0308ZM201.054 67.8021Q192.998 75.8483 184.101 78.775Q183.143 79.0902 182.181 79.3446Q175.441 81.1256 168.472 79.9314Q164.988 79.3344 161.552 78.0044Q158.428 76.7953 155.457 75.0259Q152.769 73.4257 150.366 71.4656Q148.188 69.6891 146.462 67.8008L145.676 68.5192L145.688 68.5329Q146.039 68.9159 146.407 69.294Q147.902 70.8308 149.693 72.2909Q152.157 74.3007 154.912 75.941Q157.96 77.7562 161.168 78.9976Q164.703 80.3661 168.292 80.9811Q176.518 82.3907 184.434 79.7867Q185.006 79.5986 185.574 79.3901Q193.68 76.4157 201.066 69.2831Q201.446 68.9159 201.825 68.5374L201.825 68.5366L201.072 67.7834L201.072 67.7839L201.054 67.8021Z">
</path>
<defs>
<linearGradient id="linear_fill_gZpsppHGch_0" x1="170.92822265625" y1="0" x2="170.92822265625" y2="322.1700439453125" gradientUnits="userSpaceOnUse">
<stop offset="0" stop-color="#FFD1F0"  />
<stop offset="1" stop-color="#E7E7FD" stop-opacity="0.14" />
</linearGradient>
<linearGradient id="linear_border_gZpsppHGch_0" x1="235.541259765625" y1="0" x2="12.412841796875" y2="322.7025146484375" gradientUnits="userSpaceOnUse">
<stop offset="0" stop-color="#FFFFFF"  />
<stop offset="1" stop-color="#FFFFFF" stop-opacity="0" />
</linearGradient>
<linearGradient id="linear_border_gZpsppHGch_1" x1="335.123779296875" y1="322.7025146484375" x2="85.368896484375" y2="300.3369140625" gradientUnits="userSpaceOnUse">
<stop offset="0" stop-color="#FFFFFF"  />
<stop offset="1" stop-color="#FFFFFF" stop-opacity="0" />
</linearGradient>
</defs>
</svg>
