<svg xmlns="http://www.w3.org/2000/svg" xmlns:xlink="http://www.w3.org/1999/xlink" width="342.19580078125" height="322.5" viewBox="0 0 342.19580078125 322.5" fill="none">
<path   fill-rule="evenodd"  fill="url(#linear_fill_vpHsx3890V_0)" fill-opacity="0.7200000286102295" d="M0.0434759 313.044L30.5735 7.74427C31.0131 3.34793 34.7125 0 39.1308 0L303.065 0C307.483 0 311.183 3.34793 311.622 7.74427L342.152 313.044C342.659 318.107 338.683 322.5 333.595 322.5L8.6008 322.5C3.51285 322.5 -0.462794 318.107 0.0434759 313.044ZM184.625 79.8659Q193.783 76.8542 202.035 68.607L201.281 67.853Q193.209 75.9208 184.292 78.8532Q176.619 81.3764 168.645 80.0104Q165.157 79.413 161.718 78.082Q158.591 76.8719 155.616 75.1011Q152.925 73.4997 150.519 71.538Q148.339 69.7601 146.611 67.8703L145.824 68.5897Q147.605 70.5371 149.846 72.3643Q152.312 74.3756 155.07 76.0173Q158.122 77.8338 161.333 79.0762Q164.872 80.4458 168.465 81.0612Q176.7 82.472 184.625 79.8659Z">
</path>
<path fill-rule="evenodd"  fill="url(#linear_border_vpHsx3890V_0)"  d="M30.5735 7.74427L0.0434759 313.044C-0.462794 318.107 3.51285 322.5 8.6008 322.5L333.595 322.5C338.683 322.5 342.659 318.107 342.152 313.044L311.622 7.74427C311.183 3.34793 307.483 0 303.065 0L39.1308 0C34.7125 0 31.0131 3.34793 30.5735 7.74427ZM8.6008 321.434C4.14359 321.434 0.660791 317.585 1.1043 313.15L31.6343 7.85035Q31.9232 4.96185 34.0755 3.01398Q36.2279 1.06612 39.1308 1.06612L303.065 1.06612Q305.968 1.06612 308.12 3.01398Q310.273 4.96185 310.561 7.85034L341.091 313.15C341.535 317.585 338.052 321.434 333.595 321.434L8.6008 321.434ZM168.285 82.1121Q176.781 83.5675 184.958 80.8787Q194.357 77.7877 202.788 69.3611L203.542 68.6075L201.281 66.3453L200.527 67.0989Q192.634 74.9872 183.959 77.8404Q176.538 80.2808 168.825 78.9596Q165.443 78.3802 162.102 77.0877Q159.059 75.9099 156.161 74.185Q153.538 72.6237 151.193 70.7117Q149.073 68.9833 147.398 67.151L146.679 66.3641L144.318 68.5221L145.037 69.309Q146.87 71.314 149.172 73.1906Q151.7 75.2515 154.525 76.9334Q157.654 78.7957 160.948 80.0705Q164.587 81.4786 168.285 82.1121ZM199.25 69.7897Q192.094 76.2873 184.292 78.8532Q183.332 79.1686 182.369 79.4232Q175.622 81.2057 168.645 80.0104Q165.157 79.413 161.718 78.082Q158.591 76.8718 155.616 75.1011Q152.925 73.4996 150.519 71.538Q148.35 69.7694 146.629 67.8901L146.611 67.8703L145.824 68.5897Q146.181 68.9799 146.556 69.3651Q148.054 70.9031 149.846 72.3643Q152.312 74.3756 155.07 76.0173Q158.122 77.8338 161.333 79.0762Q164.872 80.4458 168.465 81.0612Q176.7 82.472 184.625 79.8659Q185.197 79.6777 185.766 79.469Q193.88 76.4923 201.274 69.3542Q201.656 68.9859 202.035 68.607L201.281 67.853L201.256 67.8783Q200.259 68.8732 199.25 69.7897Z">
</path>
<path fill-rule="evenodd"  fill="url(#linear_border_vpHsx3890V_1)"  d="M30.5735 7.74427L0.0434759 313.044C-0.462794 318.107 3.51285 322.5 8.6008 322.5L333.595 322.5C338.683 322.5 342.659 318.107 342.152 313.044L311.622 7.74427C311.183 3.34793 307.483 0 303.065 0L39.1308 0C34.7125 0 31.0131 3.34793 30.5735 7.74427ZM8.6008 321.434C4.14359 321.434 0.660791 317.585 1.1043 313.15L31.6343 7.85035Q31.9232 4.96185 34.0755 3.01398Q36.2279 1.06612 39.1308 1.06612L303.065 1.06612Q305.968 1.06612 308.12 3.01398Q310.273 4.96185 310.561 7.85034L341.091 313.15C341.535 317.585 338.052 321.434 333.595 321.434L8.6008 321.434ZM168.285 82.1121Q176.781 83.5675 184.958 80.8787Q194.357 77.7877 202.788 69.3611L203.542 68.6075L201.281 66.3453L200.527 67.0989Q192.634 74.9872 183.959 77.8404Q176.538 80.2808 168.825 78.9596Q165.443 78.3802 162.102 77.0877Q159.059 75.9099 156.161 74.185Q153.538 72.6237 151.193 70.7117Q149.073 68.9833 147.398 67.151L146.679 66.3641L144.318 68.5221L145.037 69.309Q146.87 71.314 149.172 73.1906Q151.7 75.2515 154.525 76.9334Q157.654 78.7957 160.948 80.0705Q164.587 81.4786 168.285 82.1121ZM199.25 69.7897Q192.094 76.2873 184.292 78.8532Q183.332 79.1686 182.369 79.4232Q175.622 81.2057 168.645 80.0104Q165.157 79.413 161.718 78.082Q158.591 76.8718 155.616 75.1011Q152.925 73.4996 150.519 71.538Q148.35 69.7694 146.629 67.8901L146.611 67.8703L145.824 68.5897Q146.181 68.9799 146.556 69.3651Q148.054 70.9031 149.846 72.3643Q152.312 74.3756 155.07 76.0173Q158.122 77.8338 161.333 79.0762Q164.872 80.4458 168.465 81.0612Q176.7 82.472 184.625 79.8659Q185.197 79.6777 185.766 79.469Q193.88 76.4923 201.274 69.3542Q201.656 68.9859 202.035 68.607L201.281 67.853L201.256 67.8783Q200.259 68.8732 199.25 69.7897Z">
</path>
<defs>
<linearGradient id="linear_fill_vpHsx3890V_0" x1="171.097900390625" y1="0" x2="171.097900390625" y2="322.5" gradientUnits="userSpaceOnUse">
<stop offset="0" stop-color="#DFDFFF"  />
<stop offset="1" stop-color="#E7E7FD" stop-opacity="0.14" />
</linearGradient>
<linearGradient id="linear_border_vpHsx3890V_0" x1="235.775634765625" y1="0" x2="12.42431640625" y2="323.0330810546875" gradientUnits="userSpaceOnUse">
<stop offset="0" stop-color="#FFFFFF"  />
<stop offset="1" stop-color="#FFFFFF" stop-opacity="0" />
</linearGradient>
<linearGradient id="linear_border_vpHsx3890V_1" x1="335.457275390625" y1="323.0330810546875" x2="85.453125" y2="300.6446533203125" gradientUnits="userSpaceOnUse">
<stop offset="0" stop-color="#FFFFFF"  />
<stop offset="1" stop-color="#FFFFFF" stop-opacity="0" />
</linearGradient>
</defs>
</svg>
